<svg version="1.1" preserveAspectRatio="none" xmlns="http://www.w3.org/2000/svg" width="500" height="500" viewBox="0 0 500 500"><rect width="100%" height="100%" fill="#222222" fill-opacity="1"/><svg viewBox="5.6252 187.2 469.1377 180" width="333" height="127.76632532409995" x="83.5px" y="186.1168px" xmlns="http://www.w3.org/2000/svg" xmlns:xlink="http://www.w3.org/1999/xlink" preserveAspectRatio="none"><defs></defs><style>.a7KDWqqaqfillColor {fill:#ebebeb;fill-opacity:0;}.aZzOTVRhffillColor {fill:#ebebeb;fill-opacity:0;}.companyName {fill:#F3F3F3;fill-opacity:1;}.icon3-str {stroke:#A6A6A6;stroke-opacity:1;}.shapeStroke-str {stroke:#F3F3F3;stroke-opacity:1;}</style><g opacity="1" transform="rotate(0 25.6252 207.2)">
<svg width="449.1377" height="160" x="25.6252" y="207.2" version="1.1" preserveAspectRatio="none" viewBox="0 0 449.1377 160">
  <defs><rect x="1.2" y="1.2" width="446.7377" height="157.6" rx="0%" ry="0%" id="id-ZzOTVRhf1709747849143"></rect></defs><use class="aZzOTVRhffillColor shapeStroke-str" style="stroke-width:2.4;" xlink:href="#id-ZzOTVRhf1709747849143"></use>
</svg>
</g><g opacity="1" transform="rotate(0 5.6252 187.2)">
<svg width="449.1377" height="160" x="5.6252" y="187.2" version="1.1" preserveAspectRatio="none" viewBox="0 0 449.1377 160">
  <defs><rect x="1.2" y="1.2" width="446.7377" height="157.6" rx="0px" ry="0px" id="id-7KDWqqaq1709747849143"></rect></defs><use class="a7KDWqqaqfillColor shapeStroke-str" style="stroke-width:2.4;" xlink:href="#id-7KDWqqaq1709747849143"></use>
</svg>
</g><g opacity="1" transform="rotate(0 65.6252 247.2)">
<svg width="349.1377" height="60" x="65.6252" y="247.2" version="1.1" preserveAspectRatio="none" viewBox="2.4 -28.48 168.48 28.96">
  <g transform="matrix(1 0 0 1 0 0)" class="companyName"><path id="id-D6z1nYkh7" d="M30.28 0L30.28-12.48L22.36-12.48L22.36-10.84L26.84-10.84L26.84-3.60Q25.04-2.44 23.16-1.88Q21.28-1.32 18.88-1.32L18.88-1.32Q15.72-1.32 13.36-2.28Q11-3.24 9.44-4.94Q7.88-6.64 7.10-8.98Q6.32-11.32 6.32-14.12L6.32-14.12Q6.32-16.88 7.06-19.20Q7.80-21.52 9.28-23.20Q10.76-24.88 12.90-25.80Q15.04-26.72 17.88-26.72L17.88-26.72Q19.76-26.72 21.40-26.32Q23.04-25.92 24.32-25.28Q25.60-24.64 26.42-23.82Q27.24-23 27.48-22.16L27.48-22.16L30.36-22.16Q30-23.04 29.14-24.14Q28.28-25.24 26.80-26.20Q25.32-27.16 23.14-27.82Q20.96-28.48 18-28.48L18-28.48Q14.60-28.48 11.74-27.52Q8.88-26.56 6.80-24.76Q4.72-22.96 3.56-20.34Q2.40-17.72 2.40-14.40L2.40-14.40Q2.40-11.56 3.30-8.90Q4.20-6.24 6.06-4.14Q7.92-2.04 10.80-0.78Q13.68 0.48 17.68 0.48L17.68 0.48Q20.68 0.48 23-0.18Q25.32-0.84 26.84-1.64L26.84-1.64L26.84 0L30.28 0Z M39.28-20L35.88-20L35.88 0L39.28 0L39.28-12.08Q39.28-13.72 39.66-14.86Q40.04-16 40.64-16.72Q41.24-17.44 41.96-17.76Q42.68-18.08 43.36-18.08L43.36-18.08Q44.28-18.08 45.06-17.48Q45.84-16.88 46.20-16.36L46.20-16.36L47.56-18.84Q47.20-19.32 46.70-19.64Q46.20-19.96 45.70-20.14Q45.20-20.32 44.78-20.38Q44.36-20.44 44.16-20.44L44.16-20.44Q42.48-20.44 41.36-19.52Q40.24-18.60 39.52-16.80L39.52-16.80L39.28-16.80L39.28-20Z M70.68-9.96L70.68-9.96Q70.68-7.88 69.96-5.98Q69.24-4.08 67.90-2.64Q66.56-1.20 64.66-0.36Q62.76 0.48 60.40 0.48L60.40 0.48Q58 0.48 56.06-0.38Q54.12-1.24 52.78-2.68Q51.44-4.12 50.70-6.02Q49.96-7.92 49.96-9.96L49.96-9.96Q49.96-12.04 50.70-13.94Q51.44-15.84 52.78-17.28Q54.12-18.72 56.06-19.58Q58-20.44 60.40-20.44L60.40-20.44Q62.76-20.44 64.66-19.58Q66.56-18.72 67.90-17.28Q69.24-15.84 69.96-13.94Q70.68-12.04 70.68-9.96ZM66.88-9.96L66.88-9.96Q66.88-12.76 66.28-14.50Q65.68-16.24 64.72-17.20Q63.76-18.16 62.60-18.50Q61.44-18.84 60.36-18.84L60.36-18.84Q59.28-18.84 58.12-18.50Q56.96-18.16 55.98-17.20Q55-16.24 54.38-14.50Q53.76-12.76 53.76-9.96L53.76-9.96Q53.76-7.20 54.38-5.46Q55-3.72 55.98-2.76Q56.96-1.80 58.12-1.46Q59.28-1.12 60.36-1.12L60.36-1.12Q61.44-1.12 62.60-1.46Q63.76-1.80 64.72-2.76Q65.68-3.72 66.28-5.46Q66.88-7.20 66.88-9.96Z M79.28-20L75.88-20L75.88-7Q75.88-6.28 76.02-5.02Q76.16-3.76 76.84-2.54Q77.52-1.32 78.98-0.42Q80.44 0.48 83.08 0.48L83.08 0.48Q84.24 0.52 85.62 0.02Q87-0.48 88.40-1.88L88.40-1.88L89.04-2.52L89.20-2.52L89.20 0L92.60 0L92.60-20L89.20-20L89.20-7.60Q89.20-6.04 88.76-4.92Q88.32-3.80 87.60-3.06Q86.88-2.32 85.92-1.96Q84.96-1.60 83.92-1.60L83.92-1.60Q82.24-1.60 81.30-2.26Q80.36-2.92 79.90-3.80Q79.44-4.68 79.36-5.54Q79.28-6.40 79.28-6.80L79.28-6.80L79.28-20Z M112.44 0L115.84 0L115.84-12.96Q115.84-13.68 115.72-14.94Q115.60-16.20 114.94-17.42Q114.28-18.64 112.84-19.54Q111.40-20.44 108.76-20.44L108.76-20.44Q107.60-20.48 106.16-19.98Q104.72-19.48 103.32-18.08L103.32-18.08L102.68-17.44L102.52-17.44L102.52-20L99.12-20L99.12 0L102.52 0L102.52-12.36Q102.52-13.92 102.96-15.04Q103.40-16.16 104.16-16.92Q104.92-17.68 105.90-18.04Q106.88-18.40 107.92-18.40L107.92-18.40Q109.60-18.40 110.52-17.74Q111.44-17.08 111.86-16.20Q112.28-15.32 112.36-14.44Q112.44-13.56 112.44-13.16L112.44-13.16L112.44 0Z M140.12 0L140.12-28L136.72-28L136.72-16.72L136.56-16.72Q136.16-17.76 135.50-18.46Q134.84-19.16 134.00-19.60Q133.16-20.04 132.22-20.24Q131.28-20.44 130.32-20.44L130.32-20.44Q128.32-20.44 126.64-19.70Q124.96-18.96 123.74-17.60Q122.52-16.24 121.84-14.32Q121.16-12.40 121.16-10.04L121.16-10.04Q121.16-7.64 121.84-5.70Q122.52-3.76 123.74-2.38Q124.96-1 126.64-0.26Q128.32 0.48 130.32 0.48L130.32 0.48Q135.04 0.48 136.56-3.24L136.56-3.24L136.72-3.24L136.72 0L140.12 0ZM136.72-11.48L136.72-8Q136.72-6.68 136.28-5.50Q135.84-4.32 135.10-3.46Q134.36-2.60 133.34-2.10Q132.32-1.60 131.16-1.60L131.16-1.60Q129.88-1.60 128.76-2.06Q127.64-2.52 126.80-3.52Q125.96-4.52 125.46-6.12Q124.96-7.72 124.96-9.96L124.96-9.96Q124.96-12.24 125.46-13.84Q125.96-15.44 126.82-16.46Q127.68-17.48 128.80-17.94Q129.92-18.40 131.16-18.40L131.16-18.40Q132.28-18.40 133.28-17.94Q134.28-17.48 135.04-16.58Q135.80-15.68 136.26-14.40Q136.72-13.12 136.72-11.48L136.72-11.48Z M157.56-17L149.00-28L144.52-28L155.44-13.96L144.72 0L146.88 0L156.44-12.52L156.60-12.52L166.36 0L170.88 0L158.76-15.48L168.32-28L166.20-28L157.76-17L157.56-17Z"/></g>
</svg>
</g></svg></svg>